<svg xmlns="http://www.w3.org/2000/svg" style="display:none">
  <symbol id="icon-like" viewBox="0 0 24 24">
    <path fill="currentColor" d="M12 21s-6.716-4.35-9.09-7.054C.98 11.77 3.06 7.5 6.545 6.09 8.07 5.48 9.74 5.72 11 6.7c1.26-.98 2.93-1.22 4.455-.61C20.94 7.5 23.02 11.77 21.09 13.946 18.716 16.65 12 21 12 21z"/>
  </symbol>
  <symbol id="icon-love" viewBox="0 0 24 24">
    <path fill="currentColor" d="M12.1 21.3l-1.1-.98C5.14 15.36 2 12.5 2 9.28 2 6.55 4.24 4.5 6.93 4.5c1.9 0 3.4 1.05 4.07 2.08.67-1.03 2.17-2.08 4.07-2.08 2.69 0 4.93 2.05 4.93 4.78 0 3.22-3.14 6.08-8.99 11.04l-1.05.98z"/>
  </symbol>
  <symbol id="icon-haha" viewBox="0 0 24 24">
    <circle cx="12" cy="12" r="10" fill="currentColor"/>
  </symbol>
  <symbol id="icon-comment" viewBox="0 0 24 24">
    <path fill="currentColor" d="M21 6h-18v9a2 2 0 0 0 2 2h3v3l4-3h9a2 2 0 0 0 2-2v-9z"/>
  </symbol>
  <symbol id="icon-share" viewBox="0 0 24 24">
    <path fill="currentColor" d="M18 16.08c-.76 0-1.44.3-1.96.77L8.91 12.7a3.52 3.52 0 0 0 0-1.39l7.02-4.11A2.99 2.99 0 1 0 15 5a3 3 0 0 0 .91 2.11L8.89 11.22a3 3 0 1 0 0 1.56l6.99 4.03c-.12.31-.19.64-.19.99a3 3 0 1 0 3-3z"/>
  </symbol>
  <symbol id="icon-bell" viewBox="0 0 24 24">
    <path fill="currentColor" d="M12 2a6 6 0 0 0-6 6v4l-2 2v1h16v-1l-2-2V8a6 6 0 0 0-6-6z"/>
  </symbol>
</svg>
